# xmcd CD database file
# Copyright (C) 1996 Ti Kan
#
# Track frame offsets:
# 	150
# 	17507
# 	38980
# 	52897
# 	62795
# 	76785
# 	93077
# 	103990
# 	121007
# 	134412
# 	148202
# 	160287
# 	170372
#
# Disc length: 2475 seconds
#
# Revision: 1
# Processed by: cddbd v1.4b41PL1 Copyright (c) Steve Scherf et al.
# Submitted via: DiscPlay 3.4.1
#
DISCID=a509a90d
DTITLE=Various Artist - Hats Off!
DYEAR=1900
DGENRE=
TTITLE0=The Thunder Rolls
TTITLE1=The Dance
TTITLE2=Mr. Blue
TTITLE3=Against The Grain
TTITLE4=One Night A Day
TTITLE5=The River
TTITLE6=Not Counting You
TTITLE7=Friends In Low Places
TTITLE8=Much Too Young (To Feel This Damn Old)
TTITLE9=Standing Outside The Fire
TTITLE10=Two Of A Kind, Workin' On A Full House
TTITLE11=Callin' Baton Rouge
TTITLE12=If Tomorrow Never Comes
EXTD=
EXTT0=
EXTT1=
EXTT2=
EXTT3=
EXTT4=
EXTT5=
EXTT6=
EXTT7=
EXTT8=
EXTT9=
EXTT10=
EXTT11=
EXTT12=
PLAYORDER=
